inDegrees=no
num_controls=7
num_derivatives=13
num_iterations=152
num_multipliers=7
num_parameters=0
num_slacks=7
num_states=26
objective=0.475632
objective_accelerations=0.012149
objective_balance=0.000598
objective_effort=0.012312
objective_height=0.443880
objective_ligament=0.006693
solver_duration=1756.449595
status=Solve_Succeeded
success=true
DataType=double
version=3
OpenSimVersion=4.5
endheader
time	/jointset/ground_pelvis/pelvis_tilt/value	/jointset/ground_pelvis/pelvis_tx/value	/jointset/ground_pelvis/pelvis_ty/value	/jointset/hip_r/hip_flexion_r/value	/jointset/hip_r/hip_adduction_r/value	/jointset/hip_r/hip_rotation_r/value	/jointset/back/lumbar_extension/value	/jointset/patellofemoral_r/patellar_flexion_r/value	/jointset/knee_r/knee_flexion_r/value	/jointset/knee_r/knee_adduction_r/value	/jointset/knee_r/knee_rotation_r/value	/jointset/ankle_r/ankle_angle_r/value	/jointset/subtalar_r/subtalar_angle_r/value	/jointset/ground_pelvis/pelvis_tilt/speed	/jointset/ground_pelvis/pelvis_tx/speed	/jointset/ground_pelvis/pelvis_ty/speed	/jointset/hip_r/hip_flexion_r/speed	/jointset/hip_r/hip_adduction_r/speed	/jointset/hip_r/hip_rotation_r/speed	/jointset/back/lumbar_extension/speed	/jointset/patellofemoral_r/patellar_flexion_r/speed	/jointset/knee_r/knee_flexion_r/speed	/jointset/knee_r/knee_adduction_r/speed	/jointset/knee_r/knee_rotation_r/speed	/jointset/ankle_r/ankle_angle_r/speed	/jointset/subtalar_r/subtalar_angle_r/speed	/forceset/tau_hip_flexion_r	/forceset/tau_hip_adduction_r	/forceset/tau_hip_rotation_r	/forceset/tau_knee_flexion_r	/forceset/tau_ankle_angle_r	/forceset/tau_subtalar_angle_r	/forceset/tau_lumbar_extension	lambda_cid13_p0	lambda_cid14_p0	lambda_cid14_p1	lambda_cid14_p2	lambda_cid14_p3	lambda_cid14_p4	lambda_cid14_p5	/jointset/ground_pelvis/pelvis_tilt/accel	/jointset/ground_pelvis/pelvis_tx/accel	/jointset/ground_pelvis/pelvis_ty/accel	/jointset/hip_r/hip_flexion_r/accel	/jointset/hip_r/hip_adduction_r/accel	/jointset/hip_r/hip_rotation_r/accel	/jointset/back/lumbar_extension/accel	/jointset/patellofemoral_r/patellar_flexion_r/accel	/jointset/knee_r/knee_flexion_r/accel	/jointset/knee_r/knee_adduction_r/accel	/jointset/knee_r/knee_rotation_r/accel	/jointset/ankle_r/ankle_angle_r/accel	/jointset/subtalar_r/subtalar_angle_r/accel	gamma_cid13_p0	gamma_cid14_p0	gamma_cid14_p1	gamma_cid14_p2	gamma_cid14_p3	gamma_cid14_p4	gamma_cid14_p5
0	0.0002632076565320382	0.127736974714469	0.934443214017381	0.1934211968871041	-0.215042861708699	-0.2502857473770778	-0.2903787966825928	0.2311786273363399	0.2311786273363406	0.1030349424034124	0.1738648591499659	0.089344008118978	0.08030771939165195	0	0	0	0	0	0	0	0	0	0	0	0	0	0.076509459613014	-0.04781304649345221	-0.00195649307961552	-0.2530381679377197	0.1637087846044046	-0.06933570151961092	0.01223028346627476	-29.87814038497045	5.647615378312506	-25.22652741377819	-0.007706394282474289	-25.31313005817096	-643.5909613804123	53.17694856046714	0.6765062394370667	-0.237998545630433	-0.1310060092193396	1.038406053313661	0.02526805399877724	0.5361580865207367	-4.049831531818747	2.684718965181424	2.684718965181096	-0.7987341753759669	0.06358780639637514	1.188029423572506	0.3865696674499761	2.862257708288244e-09	1.187741955861702e-10	-2.535285708514907e-08	1.655273021309581e-08	3.091625652504385e-09	2.972021357900497e-09	-2.739959533313982e-08
0.01	0.0002981334920880875	0.127724662297121	0.9344369183326192	0.1934712740744054	-0.2150410649084963	-0.2502588265341346	-0.2905799305818963	0.2313105182206505	0.2313105182206676	0.1029945660170876	0.173867107038845	0.08940194149097062	0.08032725990956081	0.007020296542301806	-0.002509417747734461	-0.001251130153362296	0.009980236118717491	0.0003626015587210897	0.005373119373581725	-0.04002210290855331	0.02627768828221162	0.02627768828221103	-0.008051896336715375	0.0004387412647769584	0.01147785311945428	0.003879278527404752	0.07113639272789055	-0.05436608577064302	-0.001439282145012497	-0.2433037903155574	0.1470726482782816	-0.05927182332841771	0.01613260892308909	-29.87959675652879	0.8502030314319426	-21.31178092439157	-1.070440253938592	-21.91570836591592	-644.1684039570483	60.47298472131871	0.7200608756389895	-0.264452912776331	-0.1209649041408495	0.9725522853268189	0.04224282552805661	0.5362347332905132	-3.947698127511551	2.584219900118286	2.584219900118429	-0.8049120899528421	0.03239494835429174	1.111340450237416	0.384281194928455	4.497622200859013e-09	6.527650187889287e-10	-3.469887792494059e-08	2.251373146741178e-08	3.937663541898026e-09	5.446284334064934e-10	-3.461317533301212e-08
0.02	0.0004043161958688727	0.1276858477976095	0.9344183516691746	0.1936200976017203	-0.215035544768961	-0.2501785053233483	-0.2911751452017139	0.2317021712158711	0.2317021712158721	0.1028743717219373	0.1738734178727204	0.08957138883298084	0.08038472806265229	0.01425137364510254	-0.005300416432719804	-0.002454195736571995	0.01974926800448256	0.0007446678662246446	0.0106800735677106	-0.07881614410262174	0.05195242217951238	0.05195242217951302	-0.01596358175876628	0.0008125890029915736	0.02230279400312838	0.007585527036516572	0.06576332584268453	-0.0609191250478647	-0.0009220712105156477	-0.233569412693434	0.1304365119521337	-0.04920794513726854	0.02003493437985674	-29.88385568924006	-3.92564931321608	-17.39851795542255	-2.126931062752955	-18.53715322622232	-644.4175081730729	67.69564535403605	0.7186623515368625	-0.2943147330806216	-0.1213930951888196	0.9961652067231783	0.02916100375526826	0.5229250506301678	-3.804219188921761	2.564128088199253	2.564128088199288	-0.7706919924430687	0.05060910108390743	1.057446976416453	0.3519636637913827	6.132986693429782e-09	1.186755841991687e-09	-4.404489876473212e-08	2.847473272172775e-08	4.783701431291667e-09	-1.88276449108751e-09	-4.182675533288443e-08
0.03	0.0005831812245412466	0.127618313630035	0.9343879433828809	0.1938654169784736	-0.2150262666438437	-0.2500456218657706	-0.2921521565484521	0.2323473638467935	0.2323473638467891	0.1026761460193193	0.1738833025480138	0.08984636372926005	0.08047836828474332	0.02149297959479708	-0.008193374591523616	-0.003623662308158595	0.02925877446052412	0.001101553412301215	0.01587306158044303	-0.1163853779551324	0.07696137904570047	0.07696137904570069	-0.02362508096926445	0.001161519900457154	0.0326369135052215	0.01111496363524568	0.0635004884026354	-0.05841133869166091	-0.0008016529188530452	-0.2306812725235724	0.1265977032983488	-0.04947773762215051	0.02198856468706859	-29.89081528780811	-5.205497122879366	-17.69333055983356	-2.132987363414985	-17.77215533056412	-644.9457898578563	66.66629883501818	0.7226122837138168	-0.2848290235496383	-0.1141539424024148	0.9199687648575915	0.03754160007154234	0.5139580148463163	-3.703163389917782	2.450569508787123	2.450569508787023	-0.7554108876923163	0.02661672154372879	1.013104636548065	0.3492970615502888	6.512038119496205e-09	7.772694964368198e-10	-4.533029874381949e-08	2.816520066460979e-08	5.49804702203823e-09	-8.004578329609814e-09	-4.210510975743142e-08
0.04	0.0008336028261144558	0.1275222413476185	0.9343459543300197	0.1942041564997522	-0.2150137018092607	-0.2498615140604162	-0.2934988378150154	0.2332389040509659	0.2332389040509665	0.1024029989241354	0.1738965928597832	0.09022302186044823	0.08060647555354895	0.02856268822561478	-0.01100803940110856	-0.004770349050093652	0.03843329690908311	0.001402009759882626	0.02092494312323758	-0.1527501280677236	0.1012219368302298	0.1012219368302289	-0.03094786027332752	0.001493716296554555	0.04263944098500701	0.01447893637943918	0.06123765096262045	-0.05590355233544841	-0.0006812346271425891	-0.2277931323536953	0.1227588946445726	-0.04974753010701979	0.02394219499430117	-29.90032758674782	-6.465275480689878	-17.9899779568215	-2.132641478256961	-17.02342692261918	-645.1658563939134	65.56767479959069	0.6842828877615031	-0.2786560632368575	-0.1168371292585101	0.9291684052266648	0.01787516405623394	0.4947037566425962	-3.563322440937841	2.414448271867496	2.414448271867397	-0.7029480111560411	0.04726220081027013	0.9911285719549191	0.3188708928842559	6.865186183366661e-09	3.483300133817949e-10	-4.644950035464492e-08	2.772637926086433e-08	6.20967730765805e-09	-1.420256579522549e-08	-4.224046984021912e-08
0.05	0.001153857253696493	0.1273984424558761	0.9342925884069753	0.1946330188580344	-0.2149984351381398	-0.2496275944979109	-0.295203219642951	0.2343694682368787	0.2343694682368819	0.1020583217412333	0.1739131497043061	0.09069815940817579	0.0807674076085073	0.03546373084639551	-0.01373561055592674	-0.005900374019095331	0.04728197907977015	0.001646195124905759	0.02583999788241277	-0.1879375408343264	0.1247767480110499	0.1247767480110474	-0.03794242656850991	0.001808064468909713	0.05234410904100668	0.01768893270609236	0.05900423294275567	-0.05386722036232518	-0.0005596523971986014	-0.225310814028964	0.1192780122355123	-0.04963793545288752	0.02593802921342577	-29.91225816475508	-7.597207857050775	-18.10256662293377	-2.158105527934371	-16.42003594535691	-645.5627583022617	64.88594740443044	0.6893457984549365	-0.2673871352184412	-0.1107188403659616	0.8541392614746169	0.02692049976838195	0.4870662784492163	-3.468146191738285	2.308873314067641	2.308873314067468	-0.6909424654634083	0.02208831158302019	0.9535430405334384	0.3192787400114467	6.377085451500419e-09	-3.848294507210745e-10	-4.170276695330413e-08	2.570557629447619e-08	6.53842621847559e-09	-1.973351325061474e-08	-3.933272119984814e-08
0.06	0.001542388277328796	0.1272478519538626	0.9342279955023119	0.1951486522657193	-0.2149808805579609	-0.2493450923992343	-0.2972538146979962	0.2357321556891778	0.2357321556891789	0.10164505259002	0.1739325634677781	0.09126902506008586	0.08095988257422326	0.04221800743592222	-0.0163663614553129	-0.007015745373888833	0.05578750678985484	0.001859591571652424	0.03064145035735871	-0.2219927734895987	0.1476465901070043	0.1476465901070007	-0.04466625393425323	0.002065100086658994	0.06178506182144361	0.02078751853096857	0.05677081492288783	-0.05183088838920834	-0.0004380701672623761	-0.222828495704234	0.1157971298264492	-0.04952834079876382	0.0279338634325503	-29.92641334219296	-8.710381332334343	-18.21672833841788	-2.177770209451637	-15.83354496794552	-645.6729049664233	64.14196899180612	0.6549296815107029	-0.2592920121504618	-0.113906406416874	0.8605375131061948	0.01171738040093689	0.4719832997967545	-3.336886418671731	2.277454454894341	2.277454454894333	-0.6488002252682215	0.03579968988909202	0.9383855168423623	0.2965887925288549	5.853563717708422e-09	-1.130798177183853e-09	-3.670904681460898e-08	2.361816357808205e-08	6.851053808248822e-09	-2.523637481083656e-08	-3.629684166587047e-08
0.07000000000000001	0.001997781871187949	0.1270712793497982	0.9341523096105441	0.1957477706108618	-0.2149613940544618	-0.249015333543644	-0.2996392458305857	0.2373201640786331	0.2373201640786336	0.1011659791310207	0.1739544864884893	0.09193278655056793	0.08118267257857992	0.04884589279279008	-0.01894771479139806	-0.008119237229683437	0.06398794340461393	0.002035320880179087	0.03528788251423657	-0.2549033027631463	0.1698401650707977	0.1698401650707937	-0.05110848253492504	0.002311526997882866	0.07090432864736794	0.02374981351715452	0.05362561277782326	-0.04985528859598097	-0.0002412250854769714	-0.2187515369459561	0.1095720891275552	-0.04843578233151257	0.03058929805871943	-29.94262548327691	-10.66568942360556	-17.99780482609201	-2.311802694128965	-14.57785486977286	-645.9978787728714	63.93023942073637	0.664496268090659	-0.2574889354248058	-0.1082463266383883	0.7925644866541028	0.02014313572329075	0.457612025397511	-3.239613641904567	2.173069445758852	2.173069445758806	-0.6359435348640732	0.01787207423166947	0.8892618081777167	0.2929466662341187	5.338869727832225e-09	-1.721942107699683e-09	-3.203901668579289e-08	1.904682955771417e-08	6.976794405916569e-09	-2.989816016398414e-08	-3.05583958173589e-08
0.08	0.002519009979677756	0.1268689068241555	0.9340656536499229	0.1964274468723506	-0.2149402217719494	-0.2486397825961319	-0.3023480777479522	0.2391266603034541	0.239126660303454	0.1006236815145311	0.1739786353548133	0.09268585361785145	0.08143446489571254	0.05538491036229311	-0.02152634577097684	-0.009209759144573563	0.0718990900591078	0.002196747374497142	0.03979986874168388	-0.2866729304450237	0.1913441571800717	0.1913441571800675	-0.05731108543149208	0.002510269208810762	0.07964617718170171	0.02658798108616599	0.05048041063276625	-0.04787968880275654	-4.43800036799447e-05	-0.2146745781876747	0.1033470484286614	-0.04734322386426499	0.03324473268489465	-29.96067579168405	-12.60344715524491	-17.77974330001409	-2.441203113892305	-13.33938229781568	-646.0573102490617	63.66447427471333	0.6371561240377451	-0.2587475408491893	-0.1113124182359783	0.8026795210531509	0.008856817559211281	0.4450941139106534	-3.108706100337684	2.139537883990489	2.139537883990513	-0.6008750844472606	0.02626274982989278	0.8629018585242438	0.2717633090939517	4.824745269821564e-09	-2.303097341702806e-09	-2.738986978342062e-08	1.431524254999315e-08	7.090477778287186e-09	-3.450568253603016e-08	-2.464559085178064e-08
